<?xml version="1.0" standalone="no"?>
<!DOCTYPE svg PUBLIC "-//W3C//DTD SVG 20010904//EN"
 "http://www.w3.org/TR/2001/REC-SVG-20010904/DTD/svg10.dtd">
<svg version="1.0" xmlns="http://www.w3.org/2000/svg"
 width="1024.000000pt" height="768.000000pt" viewBox="0 0 1024.000000 768.000000"
 preserveAspectRatio="xMidYMid meet">

<g transform="translate(0.000000,768.000000) scale(0.100000,-0.100000)"
fill="#000000" stroke="none">
<path d="M4864 4567 c-2 -7 -4 -52 -2 -98 l3 -84 78 -3 78 -3 -3 98 -3 98 -73
3 c-54 2 -74 -1 -78 -11z"/>
<path d="M5342 3848 l3 -733 73 -3 72 -3 0 736 0 735 -75 0 -75 0 2 -732z"/>
<path d="M5817 4574 c-10 -10 -8 -1436 2 -1452 5 -9 28 -12 77 -10 l69 3 0
730 0 730 -70 3 c-39 1 -74 0 -78 -4z"/>
<path d="M6222 3848 l3 -733 65 0 65 0 3 74 3 73 47 -47 c27 -27 75 -62 112
-79 60 -29 73 -31 175 -31 128 0 170 16 256 92 86 78 132 182 147 333 10 93 1
240 -19 313 -27 101 -86 189 -162 241 -149 101 -358 84 -497 -41 l-50 -45 -2
289 -3 288 -73 3 -72 3 2 -733z m578 154 c102 -51 148 -152 157 -342 13 -289
-90 -450 -287 -452 -99 0 -169 30 -234 103 -62 68 -66 85 -66 309 0 228 4 248
73 318 99 102 233 126 357 64z"/>
<path d="M3890 4550 c-30 -4 -72 -10 -93 -14 l-37 -7 2 -702 3 -701 35 -9 c19
-4 128 -11 241 -14 233 -6 327 6 435 57 70 34 146 109 174 173 26 58 43 171
35 232 -9 66 -44 143 -89 192 -40 44 -127 95 -196 113 -25 7 -52 14 -60 17 -8
2 11 13 43 24 76 26 126 58 170 109 46 54 67 117 67 201 0 176 -109 287 -318
325 -81 14 -316 17 -412 4z m430 -135 c162 -50 215 -253 96 -371 -71 -71 -221
-108 -411 -102 l-90 3 -3 237 -2 237 37 6 c21 4 43 8 48 11 26 10 274 -6 325
-21z m1 -624 c161 -52 233 -152 216 -301 -19 -161 -122 -247 -323 -270 -81 -9
-271 1 -295 15 -5 4 -9 128 -9 297 l0 291 173 -5 c138 -5 185 -10 238 -27z"/>
<path d="M1533 4445 c-24 -10 -33 -22 -38 -47 -3 -18 -5 -278 -3 -576 l3 -544
30 -24 30 -24 260 2 260 3 0 55 0 55 -216 3 c-167 2 -219 5 -228 16 -8 9 -10
150 -9 487 l3 474 225 5 225 5 0 60 0 60 -255 2 c-200 2 -262 -1 -287 -12z"/>
<path d="M2287 4454 c-4 -4 -7 -33 -7 -65 l0 -58 133 -3 132 -3 3 -474 c1
-341 -1 -478 -9 -487 -9 -11 -43 -14 -135 -14 l-124 0 0 -60 0 -60 173 0 c140
0 177 3 195 16 l22 15 0 573 0 573 -26 24 c-25 23 -32 24 -187 27 -90 2 -166
0 -170 -4z"/>
<path d="M7470 4132 c-170 -45 -281 -174 -315 -369 -52 -292 53 -555 253 -634
50 -21 74 -23 197 -23 169 0 223 16 310 96 62 56 94 106 127 194 19 51 22 80
22 219 1 132 -2 170 -18 215 -30 88 -55 130 -113 191 -108 114 -288 157 -463
111z m262 -117 c85 -30 153 -119 177 -235 15 -70 15 -250 0 -320 -34 -163
-137 -250 -294 -251 -88 -1 -156 19 -206 60 -149 123 -162 533 -20 684 73 80
216 105 343 62z"/>
<path d="M4867 4124 c-10 -10 -8 -986 2 -1002 5 -9 28 -12 77 -10 l69 3 0 505
0 505 -70 3 c-39 1 -74 0 -78 -4z"/>
<path d="M8154 4119 c-4 -6 65 -118 155 -251 l162 -240 -167 -249 c-118 -175
-165 -252 -158 -259 6 -6 39 -10 74 -8 l64 3 130 207 c72 115 134 208 138 208
3 0 66 -94 138 -210 l132 -210 69 0 c38 0 71 5 75 11 3 6 -68 123 -160 259
l-166 248 162 241 c114 169 159 244 152 251 -6 6 -39 10 -75 8 l-64 -3 -125
-197 c-69 -109 -128 -198 -132 -198 -4 0 -64 90 -134 200 l-127 200 -68 0
c-39 0 -71 -5 -75 -11z"/>
</g>
</svg>
